<svg width="245" height="120" viewBox="0 0 245 120" fill="none" xmlns="http://www.w3.org/2000/svg">
<g opacity="0.1">
<path d="M218.315 63.6039C218.315 66.1466 216.198 68.2079 213.587 68.2079H197.713C195.565 68.2079 193.825 69.903 193.825 71.9938V93.4695C193.825 96.1301 191.609 98.2869 188.877 98.2869C186.144 98.2869 183.929 96.1301 183.929 93.4695V70.5138C183.929 64.1548 189.223 59 195.755 59H213.586C216.198 59 218.315 61.0613 218.315 63.6039Z" fill="white"/>
<path d="M244.928 82.4738V120.697C244.928 121.904 243.674 122.727 242.524 122.275L228.814 116.871C228.305 116.714 227.774 116.635 227.24 116.635H208.837C205.957 116.635 203.622 114.362 203.622 111.557V82.4738C203.622 79.6697 205.957 77.3967 208.837 77.3967H239.714C242.594 77.3967 244.928 79.6697 244.928 82.4738Z" fill="white"/>
</g>
<g opacity="0.1">
<path d="M67.4201 -12.587C67.4201 -10.7021 65.8506 -9.17403 63.9146 -9.17403H52.1474C50.5552 -9.17403 49.2648 -7.91743 49.2648 -6.36748V9.55285C49.2648 11.5252 47.6226 13.1241 45.5967 13.1241C43.5709 13.1241 41.9287 11.5252 41.9287 9.55285V-7.4646C41.9287 -12.1786 45.8537 -16 50.6955 -16H63.9144C65.8504 -16 67.4201 -14.4719 67.4201 -12.587Z" fill="white"/>
<path d="M87.1489 1.4014V29.7368C87.1489 30.6318 86.2187 31.2421 85.3667 30.9065L75.2031 26.9009C74.8257 26.7846 74.4323 26.7254 74.0365 26.7254H60.3933C58.2583 26.7254 56.5276 25.0404 56.5276 22.9617V1.4014C56.5276 -0.677289 58.2583 -2.36236 60.3933 -2.36236H83.2831C85.4182 -2.36236 87.1489 -0.677289 87.1489 1.4014Z" fill="white"/>
</g>
<g opacity="0.1">
<path d="M112.245 70.6042C112.245 71.7205 111.316 72.6254 110.169 72.6254H103.201C102.258 72.6254 101.493 73.3696 101.493 74.2875V83.7156C101.493 84.8837 100.521 85.8305 99.3212 85.8305C98.1214 85.8305 97.1489 84.8837 97.1489 83.7156V73.6377C97.1489 70.8461 99.4733 68.583 102.341 68.583H110.169C111.316 68.583 112.245 69.488 112.245 70.6042Z" fill="white"/>
<path d="M123.929 78.8886V95.669C123.929 96.199 123.378 96.5605 122.873 96.3617L116.854 93.9896C116.631 93.9207 116.398 93.8857 116.163 93.8857H108.084C106.82 93.8857 105.795 92.8877 105.795 91.6567V78.8886C105.795 77.6575 106.82 76.6596 108.084 76.6596H121.639C122.904 76.6596 123.929 77.6575 123.929 78.8886Z" fill="white"/>
</g>
<g opacity="0.1">
<path d="M48.7862 93.7926C48.7862 95.3348 47.502 96.5851 45.918 96.5851H36.2898C34.9871 96.5851 33.9312 97.6133 33.9312 98.8815V111.908C33.9312 113.522 32.5875 114.83 30.93 114.83C29.2724 114.83 27.9287 113.522 27.9287 111.908V97.9838C27.9287 94.1267 31.1402 91 35.1018 91H45.9178C47.5019 91 48.7862 92.2503 48.7862 93.7926Z" fill="white"/>
<path d="M64.9287 105.239V128.423C64.9287 129.155 64.1676 129.655 63.4705 129.38L55.1545 126.103C54.8456 126.008 54.5238 125.959 54.1999 125.959H43.0368C41.2899 125.959 39.8738 124.58 39.8738 122.88V105.239C39.8738 103.538 41.2899 102.159 43.0368 102.159H61.7657C63.5126 102.159 64.9287 103.538 64.9287 105.239Z" fill="white"/>
</g>
<g opacity="0.1">
<path d="M21.7862 70.7926C21.7862 72.3348 20.502 73.5851 18.918 73.5851H9.28982C7.9871 73.5851 6.9312 74.6133 6.9312 75.8815V88.9078C6.9312 90.5216 5.58754 91.8298 3.92996 91.8298C2.27238 91.8298 0.928711 90.5216 0.928711 88.9078V74.9838C0.928711 71.1267 4.14018 68 8.10185 68H18.9178C20.5019 68 21.7862 69.2503 21.7862 70.7926Z" fill="white"/>
<path d="M37.9287 82.2386V105.423C37.9287 106.155 37.1676 106.655 36.4705 106.38L28.1545 103.103C27.8456 103.008 27.5238 102.959 27.1999 102.959H16.0368C14.2899 102.959 12.8738 101.58 12.8738 99.8796V82.2386C12.8738 80.5378 14.2899 79.159 16.0368 79.159H34.7657C36.5126 79.159 37.9287 80.5378 37.9287 82.2386Z" fill="white"/>
</g>
<g opacity="0.1">
<path d="M177.786 81.7926C177.786 83.3348 176.502 84.5851 174.918 84.5851H165.29C163.987 84.5851 162.931 85.6133 162.931 86.8815V99.9078C162.931 101.522 161.588 102.83 159.93 102.83C158.272 102.83 156.929 101.522 156.929 99.9078V85.9838C156.929 82.1267 160.14 79 164.102 79H174.918C176.502 79 177.786 80.2503 177.786 81.7926Z" fill="white"/>
<path d="M193.929 93.2386V116.423C193.929 117.155 193.168 117.655 192.47 117.38L184.154 114.103C183.846 114.008 183.524 113.959 183.2 113.959H172.037C170.29 113.959 168.874 112.58 168.874 110.88V93.2386C168.874 91.5378 170.29 90.159 172.037 90.159H190.766C192.513 90.159 193.929 91.5378 193.929 93.2386Z" fill="white"/>
</g>
<g opacity="0.1">
<path d="M210.786 -9.20743C210.786 -7.66517 209.502 -6.41487 207.918 -6.41487H198.29C196.987 -6.41487 195.931 -5.38669 195.931 -4.1185V8.9078C195.931 10.5216 194.588 11.8298 192.93 11.8298C191.272 11.8298 189.929 10.5216 189.929 8.9078V-5.01618C189.929 -8.87329 193.14 -12 197.102 -12H207.918C209.502 -12 210.786 -10.7497 210.786 -9.20743Z" fill="white"/>
<path d="M226.929 2.23859V25.4231C226.929 26.1554 226.168 26.6548 225.47 26.3802L217.154 23.1028C216.846 23.0076 216.524 22.9592 216.2 22.9592H205.037C203.29 22.9592 201.874 21.5804 201.874 19.8796V2.23859C201.874 0.537769 203.29 -0.840984 205.037 -0.840984H223.766C225.513 -0.840984 226.929 0.537769 226.929 2.23859Z" fill="white"/>
</g>
</svg>
